<svg xmlns="http://www.w3.org/2000/svg" viewBox="0 0 512 512" role="img" aria-label="GEOtest dot icon">
  <g fill="none" stroke="#1d1d1d" stroke-width="4.5" shape-rendering="geometricPrecision">
    <circle cx="92" cy="60" r="28" fill="#fff200" />
    <circle cx="148" cy="60" r="28" fill="#2c2b91" />
    <circle cx="204" cy="60" r="28" fill="#2c2b91" />
    <circle cx="260" cy="60" r="28" fill="#2c2b91" />

    <circle cx="92" cy="116" r="28" fill="#2c2b91" />
    <circle cx="148" cy="116" r="28" fill="#fff200" />
    <circle cx="204" cy="116" r="28" fill="#fff200" />
    <circle cx="260" cy="116" r="28" fill="#fff200" />

    <circle cx="92" cy="172" r="28" fill="#2c2b91" />
    <circle cx="148" cy="172" r="28" fill="#fff200" />
    <circle cx="204" cy="172" r="28" fill="#fff200" />
    <circle cx="260" cy="172" r="28" fill="#fff200" />
    <circle cx="316" cy="172" r="28" fill="#2c2b91" />

    <circle cx="92" cy="228" r="28" fill="#2c2b91" />
    <circle cx="148" cy="228" r="28" fill="#fff200" />
    <circle cx="204" cy="228" r="28" fill="#2c2b91" />
    <circle cx="260" cy="228" r="28" fill="#2c2b91" />
    <circle cx="316" cy="228" r="28" fill="#2c2b91" />
    <circle cx="372" cy="228" r="28" fill="#2c2b91" />

    <circle cx="92" cy="284" r="28" fill="#2c2b91" />
    <circle cx="148" cy="284" r="28" fill="#fff200" />
    <circle cx="204" cy="284" r="28" fill="#fff200" />
    <circle cx="260" cy="284" r="28" fill="#2c2b91" />
    <circle cx="316" cy="284" r="28" fill="#2c2b91" />
    <circle cx="372" cy="284" r="28" fill="#2c2b91" />

    <circle cx="92" cy="340" r="28" fill="#fff200" />
    <circle cx="148" cy="340" r="28" fill="#2c2b91" />
    <circle cx="204" cy="340" r="28" fill="#2c2b91" />
    <circle cx="260" cy="340" r="28" fill="#2c2b91" />
    <circle cx="316" cy="340" r="28" fill="#2c2b91" />

    <circle cx="316" cy="396" r="28" fill="#2c2b91" />
    <circle cx="372" cy="452" r="28" fill="#2c2b91" />
  </g>
</svg>
